<svg width="109" height="30" viewBox="0 0 109 30" fill="none" xmlns="http://www.w3.org/2000/svg">
<path d="M17.1469 5.64967C17.1469 5.78125 17.095 5.88816 16.9912 5.97039C16.8873 6.04441 16.7599 6.08141 16.6088 6.08141H9.43009V6.21711C9.43009 6.71875 9.38761 7.25329 9.30265 7.82072C9.2177 8.38816 9.0997 8.95559 8.94867 9.52303C8.80708 10.0822 8.64189 10.6291 8.4531 11.1637C8.27375 11.6982 8.08496 12.1916 7.88673 12.6439C7.69794 13.0962 7.50914 13.491 7.32035 13.8281C7.13156 14.1571 6.96165 14.4038 6.81062 14.5683C6.93333 14.9465 7.07965 15.3002 7.24956 15.6291C7.41947 15.9498 7.60826 16.2336 7.81593 16.4803C8.03304 16.7188 8.26431 16.9079 8.50973 17.0477C8.75516 17.1875 9.01947 17.2574 9.30265 17.2574C9.63304 17.2574 9.9587 17.1382 10.2796 16.8997C10.61 16.653 10.9121 16.3651 11.1858 16.0362C11.469 15.699 11.7145 15.3618 11.9221 15.0247C12.1392 14.6793 12.295 14.4038 12.3894 14.1982C12.4838 14.0008 12.649 13.9021 12.885 13.9021C13.0454 13.9021 13.1729 13.9515 13.2673 14.0502C13.3711 14.1488 13.423 14.2558 13.423 14.3709C13.423 14.4285 13.4088 14.486 13.3805 14.5436C13.3522 14.6012 13.2814 14.7327 13.1681 14.9383C13.0643 15.1439 12.9227 15.3824 12.7434 15.6538C12.5735 15.9252 12.3705 16.213 12.1345 16.5173C11.908 16.8133 11.6484 17.0847 11.3558 17.3314C11.0726 17.5781 10.7658 17.7837 10.4354 17.9482C10.105 18.1127 9.75575 18.1949 9.38761 18.1949C8.73628 18.1949 8.15103 18.0099 7.63186 17.6398C7.11268 17.2697 6.66903 16.7516 6.30088 16.0855C5.94218 15.4194 5.66844 14.6299 5.47965 13.7171C5.29086 12.8043 5.19646 11.8051 5.19646 10.7196C5.19646 10.4482 5.20118 10.1316 5.21062 9.76974C5.22006 9.39967 5.23894 9.01316 5.26726 8.6102C5.29558 8.19901 5.33805 7.77961 5.39469 7.35197C5.45133 6.91612 5.52684 6.4926 5.62124 6.08141H0.538053C0.387021 6.08141 0.259587 6.04441 0.155752 5.97039C0.0519174 5.88816 0 5.78125 0 5.64967C0 5.51809 0.0519174 5.4153 0.155752 5.34128C0.259587 5.25905 0.387021 5.21793 0.538053 5.21793H5.86195C5.95634 4.92188 6.0649 4.65049 6.18761 4.40378C6.31976 4.15707 6.46608 3.94326 6.62655 3.76234C6.79646 3.58141 6.98053 3.44161 7.17876 3.34293C7.38643 3.23602 7.61298 3.18257 7.85841 3.18257C8.0944 3.18257 8.29735 3.23602 8.46726 3.34293C8.64661 3.44161 8.79764 3.58141 8.92035 3.76234C9.04307 3.94326 9.13746 4.15707 9.20354 4.40378C9.27906 4.65049 9.33569 4.92188 9.37345 5.21793H16.6088C16.7599 5.21793 16.8873 5.25905 16.9912 5.34128C17.095 5.4153 17.1469 5.51809 17.1469 5.64967ZM6.48496 13.3347C6.76814 12.7919 7.02301 12.2081 7.24956 11.5831C7.48555 10.9498 7.68378 10.3125 7.84425 9.67105C8.01416 9.02961 8.14159 8.40049 8.22655 7.78372C8.32094 7.16694 8.36814 6.59951 8.36814 6.08141H6.69735C6.56519 6.59128 6.45664 7.22451 6.37168 7.98109C6.29617 8.72944 6.25841 9.64227 6.25841 10.7196C6.25841 11.3199 6.27729 11.8257 6.31504 12.2368C6.3528 12.6398 6.40944 13.0058 6.48496 13.3347ZM7.80177 4.10773C7.71681 4.10773 7.5941 4.18997 7.43363 4.35444C7.27316 4.51069 7.11268 4.79852 6.95221 5.21793H8.3115C8.26431 4.87253 8.19351 4.60115 8.09912 4.40378C8.01416 4.20641 7.91504 4.10773 7.80177 4.10773ZM6.7115 14.2229V14.2352V14.2229Z" fill="#24262B"/>
<path d="M13.5646 16.949C13.7156 16.6694 13.8903 16.3692 14.0885 16.0485C14.2867 15.7196 14.4991 15.3865 14.7257 15.0493C14.9522 14.7039 15.1929 14.3627 15.4478 14.0255C15.7027 13.6883 15.967 13.3717 16.2407 13.0757C16.5145 12.7878 16.7882 12.5822 17.0619 12.4589C17.3451 12.3273 17.6094 12.2615 17.8549 12.2615C18.1003 12.2615 18.3127 12.3067 18.492 12.3972C18.6808 12.4794 18.8319 12.5946 18.9451 12.7426C19.0678 12.8906 19.1575 13.0633 19.2142 13.2607C19.2802 13.4581 19.3133 13.6719 19.3133 13.9021C19.3133 14.0913 19.2897 14.3462 19.2425 14.6669C19.2047 14.9794 19.1858 15.3084 19.1858 15.6538C19.1858 15.8512 19.1953 16.0485 19.2142 16.2459C19.2425 16.435 19.285 16.6077 19.3416 16.764C19.4077 16.912 19.5021 17.0354 19.6248 17.134C19.7475 17.2245 19.908 17.2697 20.1062 17.2697C20.3327 17.2697 20.5593 17.2163 20.7858 17.1094C21.0124 16.9942 21.2342 16.8462 21.4513 16.6653C21.6684 16.4762 21.8761 16.2706 22.0743 16.0485C22.2726 15.8183 22.4519 15.5921 22.6124 15.3701C22.7729 15.1398 22.9145 14.9219 23.0372 14.7163C23.1599 14.5025 23.259 14.3257 23.3345 14.1859C23.4289 13.9967 23.5941 13.9021 23.8301 13.9021C23.9906 13.9021 24.118 13.9515 24.2124 14.0502C24.3068 14.1488 24.354 14.2558 24.354 14.3709C24.354 14.4367 24.3398 14.4984 24.3115 14.5559C24.2737 14.6217 24.1982 14.7574 24.085 14.963C23.9811 15.1686 23.8348 15.4071 23.646 15.6785C23.4667 15.9498 23.2543 16.2336 23.0088 16.5296C22.7634 16.8257 22.4897 17.1012 22.1876 17.3561C21.895 17.6028 21.574 17.8084 21.2248 17.9729C20.885 18.1291 20.5263 18.2072 20.1487 18.2072C19.7145 18.2072 19.3652 18.1291 19.1009 17.9729C18.8366 17.8084 18.6289 17.6028 18.4779 17.3561C18.3363 17.1094 18.2372 16.8339 18.1805 16.5296C18.1333 16.2253 18.1097 15.9293 18.1097 15.6414C18.1097 15.4934 18.1145 15.3372 18.1239 15.1727C18.1428 15 18.1617 14.8314 18.1805 14.6669C18.1994 14.5025 18.2136 14.3503 18.223 14.2105C18.2419 14.0625 18.2513 13.9391 18.2513 13.8405C18.2513 13.5855 18.2088 13.4128 18.1239 13.3224C18.0484 13.2319 17.9587 13.1867 17.8549 13.1867C17.7038 13.1867 17.5292 13.2648 17.331 13.4211C17.1422 13.5691 16.9392 13.7664 16.7221 14.0132C16.5145 14.2599 16.3021 14.5395 16.085 14.852C15.8773 15.1563 15.6743 15.4605 15.4761 15.7648C15.2779 16.0691 15.0985 16.361 14.9381 16.6406C14.7776 16.912 14.6454 17.1382 14.5416 17.3191C14.3434 17.6645 14.1404 17.8947 13.9327 18.0099C13.7345 18.1332 13.5552 18.1949 13.3947 18.1949C13.1021 18.1949 12.8755 18.0962 12.715 17.8988C12.564 17.6933 12.4885 17.4465 12.4885 17.1587V16.3816C12.4885 14.8273 12.4885 13.347 12.4885 11.9408C12.4979 10.5263 12.5215 9.21464 12.5593 8.00576C12.6065 6.78865 12.6773 5.69079 12.7717 4.71217C12.8755 3.72533 13.0265 2.88651 13.2248 2.19572C13.423 1.49671 13.6732 0.958059 13.9752 0.57977C14.2867 0.20148 14.6737 0.0123355 15.1363 0.0123355C15.5327 0.0123355 15.8678 0.106908 16.1416 0.296053C16.4153 0.485197 16.6372 0.744243 16.8071 1.07319C16.977 1.39391 17.0997 1.7722 17.1752 2.20806C17.2507 2.63569 17.2885 3.08799 17.2885 3.56497C17.2885 4.53536 17.1847 5.48931 16.977 6.42681C16.7788 7.35609 16.5097 8.2648 16.1699 9.15296C15.8301 10.0411 15.4336 10.9087 14.9805 11.7558C14.5274 12.5946 14.0507 13.4128 13.5504 14.2105C13.5504 14.3586 13.5504 14.5354 13.5504 14.741C13.5504 14.9465 13.5504 15.1521 13.5504 15.3577C13.5504 15.5633 13.5504 15.7566 13.5504 15.9375C13.5504 16.1184 13.5504 16.2623 13.5504 16.3692L13.5646 16.949ZM13.5646 12.3972C13.9611 11.6406 14.3198 10.9046 14.6407 10.1891C14.9711 9.46546 15.2496 8.74589 15.4761 8.03043C15.7121 7.31497 15.8962 6.59128 16.0283 5.85938C16.1605 5.11924 16.2265 4.35033 16.2265 3.55263C16.2265 3.42105 16.2171 3.21135 16.1982 2.92352C16.1888 2.63569 16.1463 2.34375 16.0708 2.0477C16.0047 1.75164 15.8962 1.4926 15.7451 1.27056C15.6035 1.04852 15.4006 0.9375 15.1363 0.9375C14.9286 0.9375 14.7493 1.06086 14.5982 1.30757C14.4472 1.54605 14.315 1.875 14.2018 2.29441C14.0885 2.70559 13.9941 3.18668 13.9186 3.73766C13.8431 4.28865 13.7817 4.87253 13.7345 5.48931C13.6873 6.10609 13.6496 6.73931 13.6212 7.38898C13.6024 8.03865 13.5882 8.67188 13.5788 9.28865C13.5693 9.8972 13.5646 10.4688 13.5646 11.0033C13.5646 11.5378 13.5646 12.0025 13.5646 12.3972Z" fill="#24262B"/>
<path d="M25.0478 16.6406C25.246 16.8791 25.5009 17.0724 25.8124 17.2204C26.1239 17.3602 26.5062 17.4301 26.9593 17.4301C27.4218 17.4301 27.8419 17.3355 28.2195 17.1464C28.5971 16.949 28.9416 16.6941 29.2531 16.3816C29.5646 16.0691 29.8431 15.7196 30.0885 15.3331C30.3339 14.9465 30.5558 14.56 30.754 14.1735C30.8012 14.0831 30.8673 14.0173 30.9522 13.9762C31.0372 13.9268 31.1316 13.9021 31.2354 13.9021C31.3959 13.9021 31.5233 13.9515 31.6177 14.0502C31.7215 14.1488 31.7735 14.2558 31.7735 14.3709C31.7735 14.412 31.7687 14.449 31.7593 14.4819C31.7499 14.5066 31.7357 14.5354 31.7168 14.5683C31.0655 15.8183 30.3528 16.7599 29.5788 17.3931C28.8142 18.0263 27.9457 18.3512 26.9735 18.3676C26.3504 18.3676 25.8124 18.2607 25.3593 18.0469C24.9062 17.8413 24.5333 17.574 24.2407 17.2451C23.9481 16.9079 23.731 16.5296 23.5894 16.1102C23.4478 15.6908 23.377 15.2714 23.377 14.852C23.377 14.4326 23.4336 14.0461 23.5469 13.6924C23.6696 13.3388 23.8395 13.0304 24.0566 12.7673C24.2832 12.5041 24.5475 12.2985 24.8496 12.1505C25.1611 12.0025 25.5009 11.9285 25.869 11.9285C26.0861 11.9285 26.2985 11.9696 26.5062 12.0518C26.7233 12.1258 26.9168 12.2368 27.0867 12.3849C27.2566 12.5247 27.3935 12.6974 27.4973 12.903C27.6012 13.1086 27.6531 13.3429 27.6531 13.6061C27.6531 13.9433 27.587 14.2599 27.4549 14.5559C27.3227 14.852 27.1386 15.1275 26.9027 15.3824C26.6761 15.6373 26.4024 15.8717 26.0814 16.0855C25.7605 16.2993 25.4159 16.4844 25.0478 16.6406ZM24.623 15.8388C24.9156 15.7319 25.1799 15.5962 25.4159 15.4317C25.6614 15.2673 25.869 15.0863 26.0389 14.889C26.2088 14.6916 26.341 14.486 26.4354 14.2722C26.5298 14.0502 26.577 13.8281 26.577 13.6061C26.577 13.3594 26.5062 13.1743 26.3646 13.051C26.223 12.9194 26.0578 12.8536 25.869 12.8536C25.6142 12.8536 25.3971 12.9153 25.2177 13.0387C25.0383 13.162 24.892 13.3224 24.7788 13.5197C24.6655 13.7171 24.5805 13.9391 24.5239 14.1859C24.4767 14.4243 24.4531 14.6628 24.4531 14.9013C24.4531 15.0493 24.4673 15.2056 24.4956 15.3701C24.5333 15.5345 24.5758 15.6908 24.623 15.8388Z" fill="#24262B"/>
<path d="M42.7044 14.5806C42.6761 14.6299 42.6147 14.7327 42.5204 14.889C42.426 15.037 42.3032 15.2138 42.1522 15.4194C42.0012 15.6168 41.8218 15.8306 41.6142 16.0609C41.4065 16.2829 41.1799 16.4885 40.9345 16.6776C40.6891 16.8668 40.4248 17.023 40.1416 17.1464C39.8584 17.2697 39.5658 17.3314 39.2637 17.3314C38.7729 17.3314 38.3575 17.2574 38.0177 17.1094C37.6779 16.9531 37.3994 16.7804 37.1823 16.5913C37.0313 16.8791 36.8472 17.1423 36.6301 17.3808C36.413 17.6192 36.1723 17.8248 35.908 17.9975C35.6437 18.1785 35.3605 18.3183 35.0584 18.4169C34.7658 18.5156 34.4637 18.565 34.1522 18.565C33.5764 18.565 33.0855 18.4169 32.6796 18.1209C32.2737 17.8248 31.9339 17.4301 31.6602 16.9367C31.3959 16.435 31.1882 15.8553 31.0372 15.1974C30.8861 14.5395 30.7681 13.8487 30.6832 13.125C30.6077 12.4013 30.5605 11.6694 30.5416 10.9293C30.5227 10.1891 30.5133 9.48602 30.5133 8.8199C30.5133 7.54523 30.5558 6.44326 30.6407 5.51398C30.7257 4.57648 30.8389 3.78289 30.9805 3.13322C31.1316 2.47533 31.3015 1.9449 31.4903 1.54194C31.6885 1.13076 31.8962 0.814145 32.1133 0.592105C32.3304 0.361842 32.5522 0.205592 32.7788 0.123355C33.0053 0.0411184 33.2271 0 33.4442 0C33.7935 0 34.1003 0.0904605 34.3646 0.271382C34.6383 0.452303 34.8649 0.707237 35.0442 1.03618C35.233 1.35691 35.3746 1.74753 35.469 2.20806C35.5634 2.66859 35.6106 3.17434 35.6106 3.72533C35.6106 4.60526 35.5021 5.51398 35.285 6.45148C35.0678 7.38898 34.7847 8.32648 34.4354 9.26398C34.0956 10.1933 33.7133 11.1102 33.2885 12.0148C32.8637 12.9112 32.4437 13.7623 32.0283 14.5683C32.085 14.9712 32.1699 15.3577 32.2832 15.7278C32.3965 16.0896 32.5428 16.4145 32.7221 16.7023C32.9015 16.9819 33.1139 17.2081 33.3593 17.3808C33.6047 17.5452 33.8879 17.6275 34.2088 17.6275C34.5298 17.6275 34.8319 17.5493 35.115 17.3931C35.3982 17.2286 35.6437 17.0189 35.8513 16.764C36.059 16.5008 36.2195 16.2048 36.3327 15.8758C36.4555 15.5469 36.5168 15.2097 36.5168 14.8643C36.5168 14.634 36.4885 14.4038 36.4319 14.1735C36.3847 13.935 36.3044 13.7253 36.1912 13.5444C36.0873 13.3553 35.9552 13.2031 35.7947 13.088C35.6342 12.9729 35.4407 12.9153 35.2142 12.9153C35.0442 12.9153 34.9121 12.9482 34.8177 13.014C34.7233 13.0715 34.6525 13.1414 34.6053 13.2237C34.5581 13.2977 34.5298 13.3717 34.5204 13.4457C34.5109 13.5197 34.5062 13.5691 34.5062 13.5938C34.5062 13.7089 34.5345 13.824 34.5912 13.9391C34.6478 14.0543 34.7563 14.1571 34.9168 14.2475C35.0773 14.3462 35.1575 14.4819 35.1575 14.6546C35.1575 14.7944 35.1009 14.9054 34.9876 14.9877C34.8838 15.0699 34.7658 15.111 34.6336 15.111C34.4448 15.111 34.2749 15.0617 34.1239 14.963C33.9823 14.8643 33.8596 14.741 33.7558 14.5929C33.6519 14.4367 33.5717 14.2722 33.515 14.0995C33.4584 13.9268 33.4301 13.7664 33.4301 13.6184C33.4301 13.3799 33.4773 13.162 33.5717 12.9646C33.6661 12.759 33.7935 12.5863 33.954 12.4465C34.1239 12.2985 34.3127 12.1875 34.5204 12.1135C34.7375 12.0313 34.964 11.9901 35.2 11.9901C35.6059 11.9901 35.9552 12.0724 36.2478 12.2368C36.5499 12.4013 36.8 12.6192 36.9982 12.8906C37.1965 13.162 37.3428 13.4704 37.4372 13.8158C37.5316 14.1612 37.5788 14.5107 37.5788 14.8643C37.5788 15.0699 37.5646 15.2714 37.5363 15.4688C37.574 15.5345 37.6354 15.6209 37.7204 15.7278C37.8053 15.8347 37.9186 15.9375 38.0602 16.0362C38.2018 16.1349 38.3717 16.2212 38.5699 16.2952C38.7681 16.3692 38.9994 16.4063 39.2637 16.4063C39.4903 16.4063 39.7215 16.3322 39.9575 16.1842C40.2029 16.028 40.4342 15.8388 40.6513 15.6168C40.8779 15.3865 41.0855 15.1439 41.2743 14.889C41.4631 14.6258 41.6189 14.3832 41.7416 14.1612C41.7888 14.0789 41.8549 14.0173 41.9398 13.9762C42.0248 13.9268 42.1192 13.9021 42.223 13.9021C42.3835 13.9021 42.5109 13.9515 42.6053 14.0502C42.7091 14.1488 42.7611 14.2599 42.7611 14.3832C42.7611 14.4326 42.7422 14.4984 42.7044 14.5806ZM31.7593 12.9893C32.0802 12.2985 32.4059 11.5748 32.7363 10.8183C33.0667 10.0535 33.364 9.27632 33.6283 8.48684C33.8926 7.69737 34.1097 6.89967 34.2796 6.09375C34.4496 5.28783 34.5345 4.49424 34.5345 3.71299C34.5345 3.41694 34.5156 3.10855 34.4779 2.78783C34.4496 2.45888 34.3929 2.15872 34.308 1.88734C34.223 1.61595 34.105 1.3898 33.954 1.20888C33.8124 1.02796 33.6283 0.9375 33.4018 0.9375C33.3263 0.9375 33.2271 0.98273 33.1044 1.07319C32.9912 1.15543 32.8684 1.30757 32.7363 1.52961C32.6041 1.74342 32.472 2.04359 32.3398 2.4301C32.2077 2.81661 32.085 3.31003 31.9717 3.91036C31.8678 4.50247 31.7782 5.21793 31.7027 6.05674C31.6366 6.89556 31.6035 7.8824 31.6035 9.01727C31.6035 9.39556 31.6083 9.78207 31.6177 10.1768C31.6271 10.5633 31.6366 10.9334 31.646 11.287C31.6649 11.6406 31.6838 11.9655 31.7027 12.2615C31.7215 12.5576 31.7404 12.8002 31.7593 12.9893Z" fill="#24262B"/>
<path d="M44.0637 8.31415C44.0637 8.62665 43.9363 8.89391 43.6814 9.11595C43.436 9.32977 43.1339 9.43668 42.7752 9.43668C42.4165 9.43668 42.1097 9.32977 41.8549 9.11595C41.6094 8.89391 41.4867 8.62665 41.4867 8.31415C41.4867 8.1579 41.5198 8.01398 41.5858 7.8824C41.6519 7.7426 41.7416 7.62336 41.8549 7.52467C41.9776 7.41776 42.1145 7.33553 42.2655 7.27796C42.426 7.22039 42.5959 7.19161 42.7752 7.19161C42.9546 7.19161 43.1198 7.22039 43.2708 7.27796C43.4313 7.33553 43.5681 7.41776 43.6814 7.52467C43.8041 7.62336 43.8985 7.7426 43.9646 7.8824C44.0307 8.01398 44.0637 8.1579 44.0637 8.31415ZM41.7699 15.5428C41.7699 14.3586 41.8549 13.1785 42.0248 12.0025C42.0437 11.8873 42.1003 11.7887 42.1947 11.7064C42.2985 11.616 42.4307 11.5707 42.5912 11.5707C42.7327 11.5707 42.8507 11.6201 42.9451 11.7188C43.0395 11.8092 43.0867 11.9161 43.0867 12.0395C43.0867 12.0888 43.0726 12.2368 43.0442 12.4836C43.0254 12.7303 42.997 13.0263 42.9593 13.3717C42.931 13.7089 42.9027 14.0707 42.8743 14.4572C42.8555 14.8355 42.846 15.185 42.846 15.5058C42.846 15.9416 42.8932 16.2952 42.9876 16.5666C43.0914 16.8298 43.2189 17.0354 43.3699 17.1834C43.5304 17.3314 43.6956 17.4301 43.8655 17.4794C44.0448 17.5288 44.2147 17.5535 44.3752 17.5535C44.6395 17.5535 44.9133 17.4712 45.1965 17.3067C45.4796 17.1423 45.7676 16.912 46.0602 16.616C46.3622 16.3199 46.6643 15.9663 46.9664 15.5551C47.2684 15.1357 47.5658 14.6711 47.8584 14.1612C47.9056 14.0789 47.9717 14.0173 48.0566 13.9762C48.1416 13.9268 48.236 13.9021 48.3398 13.9021C48.4909 13.9021 48.6136 13.9515 48.708 14.0502C48.8118 14.1488 48.8637 14.2558 48.8637 14.3709C48.8637 14.4531 48.8448 14.523 48.8071 14.5806C48.6938 14.7697 48.5522 15 48.3823 15.2714C48.2124 15.5428 48.0189 15.8224 47.8018 16.1102C47.5847 16.398 47.344 16.6859 47.0796 16.9737C46.8248 17.2533 46.551 17.5082 46.2584 17.7385C45.9658 17.9605 45.659 18.1414 45.3381 18.2813C45.0171 18.4211 44.6914 18.491 44.3611 18.491C43.9363 18.491 43.5634 18.4128 43.2425 18.2566C42.9215 18.1003 42.6478 17.8906 42.4212 17.6275C42.2041 17.3643 42.0389 17.0559 41.9257 16.7023C41.8218 16.3405 41.7699 15.9539 41.7699 15.5428ZM43.2708 8.31415C43.2708 8.19901 43.2189 8.10033 43.115 8.01809C43.0206 7.92763 42.9074 7.8824 42.7752 7.8824C42.6431 7.8824 42.5298 7.92763 42.4354 8.01809C42.341 8.10033 42.2938 8.19901 42.2938 8.31415C42.2938 8.42928 42.341 8.52796 42.4354 8.6102C42.5298 8.69243 42.6431 8.73355 42.7752 8.73355C42.9074 8.73355 43.0206 8.69243 43.115 8.6102C43.2189 8.52796 43.2708 8.42928 43.2708 8.31415Z" fill="#24262B"/>
<path d="M48.9487 18.602C49.6472 18.3306 50.2796 18.0181 50.846 17.6645C51.4218 17.3109 51.9316 16.9408 52.3752 16.5543C52.8283 16.1595 53.2106 15.7607 53.5221 15.3577C53.8431 14.9465 54.0979 14.5559 54.2867 14.1859C54.3717 14.0049 54.5322 13.9145 54.7681 13.9145C54.9286 13.9145 55.056 13.9638 55.1504 14.0625C55.2543 14.153 55.3062 14.2558 55.3062 14.3709C55.3062 14.4367 55.292 14.4984 55.2637 14.5559C55.056 14.9589 54.7917 15.3783 54.4708 15.8141C54.1499 16.2418 53.7581 16.6653 53.2956 17.0847C52.8425 17.4959 52.3091 17.8947 51.6956 18.2813C51.082 18.6678 50.3788 19.0214 49.5858 19.3421C50.0956 19.8026 50.5392 20.3125 50.9168 20.8717C51.2944 21.4391 51.6059 22.0271 51.8513 22.6357C52.1062 23.2442 52.295 23.8569 52.4177 24.4737C52.5499 25.0987 52.6159 25.6949 52.6159 26.2623C52.6159 26.7804 52.5593 27.2656 52.446 27.7179C52.3422 28.1785 52.1817 28.5773 51.9646 28.9145C51.7569 29.2516 51.5021 29.5148 51.2 29.7039C50.8979 29.9013 50.5534 30 50.1664 30C49.6 30 49.1611 29.815 48.8496 29.4449C48.5381 29.0831 48.3068 28.5773 48.1558 27.9276C48.0142 27.2862 47.9292 26.5255 47.9009 25.6456C47.882 24.7738 47.8726 23.824 47.8726 22.7961C47.8726 22.2862 47.8726 21.69 47.8726 21.0074C47.8726 20.3331 47.8726 19.6053 47.8726 18.824C47.882 18.051 47.8867 17.241 47.8867 16.3939C47.8962 15.5387 47.9056 14.6834 47.915 13.8281C47.9245 12.9729 47.9339 12.134 47.9434 11.3117C47.9528 10.4811 47.967 9.69572 47.9858 8.95559C48.0142 7.54112 48.0708 6.27878 48.1558 5.16859C48.2407 4.05839 48.3776 3.12089 48.5664 2.35609C48.7552 1.59128 49.01 1.01151 49.331 0.616776C49.6614 0.213816 50.0767 0.0123355 50.577 0.0123355C50.9735 0.0123355 51.3086 0.11102 51.5823 0.308388C51.856 0.497533 52.0779 0.756579 52.2478 1.08553C52.4177 1.40625 52.5404 1.78454 52.6159 2.22039C52.6914 2.65625 52.7292 3.11266 52.7292 3.58964C52.7292 4.59293 52.6301 5.56332 52.4319 6.50082C52.2336 7.43832 51.9646 8.34704 51.6248 9.22697C51.285 10.1069 50.8838 10.9663 50.4212 11.8051C49.9681 12.6439 49.482 13.4704 48.9628 14.2845C48.9628 14.6217 48.9628 14.9877 48.9628 15.3824C48.9628 15.7689 48.9628 16.1595 48.9628 16.5543C48.9628 16.9408 48.9581 17.315 48.9487 17.6768C48.9487 18.0304 48.9487 18.3388 48.9487 18.602ZM48.9912 12.3849C49.3782 11.7516 49.7322 11.0855 50.0531 10.3865C50.3835 9.67928 50.6667 8.95148 50.9027 8.20313C51.1386 7.45477 51.3227 6.68997 51.4549 5.90872C51.587 5.12747 51.6531 4.34211 51.6531 3.55263C51.6531 3.15789 51.6295 2.80016 51.5823 2.47944C51.5445 2.15872 51.4785 1.88734 51.3841 1.6653C51.2991 1.43503 51.1858 1.25822 51.0442 1.13487C50.9121 1.00329 50.7563 0.9375 50.577 0.9375C50.3882 0.9375 50.223 1.03618 50.0814 1.23355C49.9398 1.43092 49.8171 1.69408 49.7133 2.02303C49.6094 2.35197 49.5198 2.73026 49.4442 3.15789C49.3782 3.58553 49.3215 4.03372 49.2743 4.50247C49.2271 4.96299 49.1894 5.42763 49.1611 5.89638C49.1327 6.35691 49.1091 6.79276 49.0903 7.20395C49.0808 7.60691 49.0714 7.96464 49.0619 8.27714C49.0619 8.58964 49.0619 8.82401 49.0619 8.98026C49.0525 9.30921 49.0431 9.60115 49.0336 9.85609C49.0336 10.111 49.0289 10.3618 49.0195 10.6086C49.01 10.8553 49.0006 11.1184 48.9912 11.398C48.9912 11.6776 48.9912 12.0066 48.9912 12.3849ZM48.9487 20.1192C48.9487 20.6373 48.944 21.1184 48.9345 21.5625C48.9345 22.0148 48.9345 22.426 48.9345 22.7961C48.9345 23.5609 48.9392 24.3174 48.9487 25.0658C48.9581 25.8141 49.0006 26.4844 49.0761 27.0765C49.1611 27.6768 49.2838 28.1579 49.4442 28.5197C49.6142 28.8898 49.8549 29.0748 50.1664 29.0748C50.4496 29.0748 50.6808 28.9638 50.8602 28.7418C51.0395 28.5197 51.1764 28.2566 51.2708 27.9523C51.3746 27.648 51.4454 27.3355 51.4832 27.0148C51.5209 26.7023 51.5398 26.4474 51.5398 26.25C51.5398 25.7484 51.4832 25.222 51.3699 24.6711C51.2661 24.1201 51.1009 23.5732 50.8743 23.0304C50.6572 22.4959 50.3882 21.9778 50.0673 21.4762C49.7463 20.9745 49.3735 20.5222 48.9487 20.1192Z" fill="#24262B"/>
<path d="M59.0018 16.616C58.6714 17.0847 58.2844 17.4548 57.8407 17.7262C57.4065 17.9975 56.9676 18.1332 56.5239 18.1332C56.1652 18.1332 55.8442 18.0757 55.5611 17.9605C55.2779 17.8454 55.0324 17.685 54.8248 17.4794C54.6171 17.2656 54.4566 17.0107 54.3434 16.7146C54.2395 16.4186 54.1876 16.0855 54.1876 15.7155C54.1876 15.1398 54.249 14.6299 54.3717 14.1859C54.5038 13.7418 54.6454 13.3717 54.7965 13.0757C54.9475 12.7714 55.0891 12.5411 55.2212 12.3849C55.3534 12.2286 55.4195 12.1505 55.4195 12.1505C55.4667 12.1012 55.5233 12.0641 55.5894 12.0395C55.6649 12.0148 55.7404 12.0025 55.8159 12.0025C55.967 12.0025 56.0897 12.0518 56.1841 12.1505C56.2879 12.241 56.3398 12.3479 56.3398 12.4712C56.3398 12.5206 56.3257 12.5699 56.2973 12.6192C56.2785 12.6686 56.2549 12.7179 56.2265 12.7673C56.1794 12.8413 56.1038 12.9564 56 13.1127C55.8962 13.2607 55.7876 13.4581 55.6743 13.7048C55.5611 13.9515 55.4619 14.2434 55.377 14.5806C55.292 14.9095 55.2496 15.2878 55.2496 15.7155C55.2496 16.2007 55.3581 16.5707 55.5752 16.8257C55.8018 17.0724 56.118 17.1957 56.5239 17.1957C56.6938 17.1957 56.8873 17.1505 57.1044 17.06C57.331 16.9613 57.5481 16.8133 57.7558 16.616C57.9729 16.4186 58.1617 16.1678 58.3221 15.8635C58.4826 15.5592 58.5864 15.2015 58.6336 14.7903L58.846 12.6686C58.8649 12.5452 58.9263 12.4424 59.0301 12.3602C59.1339 12.278 59.2566 12.2368 59.3982 12.2368C59.5587 12.2368 59.6861 12.2903 59.7805 12.3972C59.8749 12.4959 59.9221 12.611 59.9221 12.7426L59.7381 14.7903C59.7192 14.963 59.7239 15.1891 59.7522 15.4688C59.79 15.7484 59.8608 16.0238 59.9646 16.2952C60.0684 16.5666 60.2242 16.801 60.4319 16.9984C60.6395 17.1875 60.9133 17.2821 61.2531 17.2821C61.4985 17.2821 61.7392 17.2286 61.9752 17.1217C62.2112 17.0066 62.4378 16.8586 62.6549 16.6776C62.872 16.4967 63.0702 16.2952 63.2496 16.0732C63.4383 15.8429 63.6083 15.6127 63.7593 15.3824C63.9198 15.1521 64.0566 14.9342 64.1699 14.7286C64.2832 14.5148 64.3776 14.3339 64.4531 14.1859C64.5003 14.0954 64.5664 14.0255 64.6513 13.9762C64.7363 13.9268 64.8307 13.9021 64.9345 13.9021C65.1044 13.9021 65.2366 13.9515 65.331 14.0502C65.4254 14.1488 65.4726 14.2558 65.4726 14.3709C65.4726 14.4367 65.4584 14.4984 65.4301 14.5559C65.3923 14.6217 65.3168 14.7615 65.2035 14.9753C65.0997 15.1809 64.9581 15.4194 64.7788 15.6908C64.6088 15.9539 64.4012 16.2336 64.1558 16.5296C63.9103 16.8257 63.6366 17.1012 63.3345 17.3561C63.0324 17.6028 62.7021 17.8084 62.3434 17.9729C61.9941 18.1291 61.6165 18.2072 61.2106 18.2072C60.6537 18.2072 60.1912 18.0715 59.823 17.8002C59.4549 17.5206 59.1811 17.1258 59.0018 16.616Z" fill="#24262B"/>
<path d="M72.5239 14.5806C72.4201 14.7697 72.2879 14.9959 72.1274 15.259C71.9764 15.514 71.8018 15.7813 71.6035 16.0609C71.4053 16.3405 71.1835 16.6201 70.9381 16.8997C70.6926 17.1711 70.4236 17.4178 70.131 17.6398C69.8478 17.8536 69.541 18.0263 69.2106 18.1579C68.8897 18.2977 68.5451 18.3676 68.177 18.3676C67.6106 18.3676 67.1245 18.2155 66.7186 17.9112C66.3127 17.6069 65.9681 17.2081 65.685 16.7146C65.4018 16.2212 65.1705 15.662 64.9912 15.037C64.8212 14.4038 64.6891 13.7623 64.5947 13.1127C64.5003 12.4548 64.4342 11.8174 64.3965 11.2007C64.3681 10.5839 64.354 10.037 64.354 9.56003C64.354 8.86924 64.3776 8.15378 64.4248 7.41365C64.4814 6.67352 64.5664 5.94984 64.6796 5.2426C64.7929 4.53536 64.9345 3.86513 65.1044 3.23191C65.2838 2.59868 65.4914 2.04359 65.7274 1.56661C65.9729 1.08964 66.2513 0.711349 66.5628 0.431743C66.8743 0.152138 67.2283 0.0123355 67.6248 0.0123355C67.9363 0.0123355 68.2147 0.078125 68.4602 0.209704C68.715 0.333059 68.9274 0.538651 69.0973 0.82648C69.2673 1.11431 69.3994 1.48849 69.4938 1.94901C69.5882 2.40954 69.6354 2.97286 69.6354 3.63898C69.6354 4.46135 69.5363 5.3125 69.3381 6.19243C69.1398 7.06414 68.8708 7.94408 68.531 8.83224C68.1912 9.7204 67.79 10.6086 67.3274 11.4967C66.8649 12.3766 66.3693 13.236 65.8407 14.0748C66.0767 15.1192 66.3929 15.9416 66.7894 16.5419C67.1858 17.134 67.6625 17.4301 68.2195 17.4301C68.597 17.4301 68.9605 17.3026 69.3097 17.0477C69.659 16.7845 69.9799 16.4762 70.2726 16.1225C70.5652 15.7689 70.8201 15.4112 71.0372 15.0493C71.2637 14.6793 71.4383 14.3832 71.5611 14.1612C71.6083 14.0789 71.6743 14.0173 71.7593 13.9762C71.8442 13.9268 71.9386 13.9021 72.0425 13.9021C72.2029 13.9021 72.3304 13.9515 72.4248 14.0502C72.5286 14.1488 72.5805 14.2599 72.5805 14.3832C72.5805 14.4326 72.5617 14.4984 72.5239 14.5806ZM65.4301 9.62171C65.4301 10.148 65.4442 10.6538 65.4726 11.139C65.5009 11.6242 65.5386 12.0888 65.5858 12.5329C65.9823 11.8668 66.3599 11.1595 66.7186 10.4112C67.0773 9.65461 67.3935 8.89391 67.6673 8.12911C67.941 7.35609 68.1581 6.59128 68.3186 5.8347C68.4885 5.0699 68.5735 4.34211 68.5735 3.65132C68.5735 2.68092 68.4838 1.98602 68.3044 1.56661C68.1251 1.1472 67.8844 0.9375 67.5823 0.9375C67.3841 0.9375 67.1906 1.05674 67.0018 1.29523C66.8224 1.53372 66.6525 1.85855 66.492 2.26974C66.3316 2.68092 66.1853 3.16612 66.0531 3.72533C65.9209 4.28454 65.8077 4.88487 65.7133 5.52632C65.6283 6.16776 65.5575 6.83799 65.5009 7.53701C65.4537 8.23602 65.4301 8.93092 65.4301 9.62171Z" fill="#24262B"/>
<path d="M73.2743 16.6406C73.4726 16.8791 73.7274 17.0724 74.0389 17.2204C74.3504 17.3602 74.7327 17.4301 75.1858 17.4301C75.6484 17.4301 76.0684 17.3355 76.446 17.1464C76.8236 16.949 77.1681 16.6941 77.4796 16.3816C77.7912 16.0691 78.0696 15.7196 78.315 15.3331C78.5605 14.9465 78.7823 14.56 78.9805 14.1735C79.0277 14.0831 79.0938 14.0173 79.1788 13.9762C79.2637 13.9268 79.3581 13.9021 79.4619 13.9021C79.6224 13.9021 79.7499 13.9515 79.8442 14.0502C79.9481 14.1488 80 14.2558 80 14.3709C80 14.412 79.9953 14.449 79.9858 14.4819C79.9764 14.5066 79.9622 14.5354 79.9434 14.5683C79.292 15.8183 78.5794 16.7599 77.8053 17.3931C77.0407 18.0263 76.1723 18.3512 75.2 18.3676C74.577 18.3676 74.0389 18.2607 73.5858 18.0469C73.1327 17.8413 72.7599 17.574 72.4673 17.2451C72.1746 16.9079 71.9575 16.5296 71.8159 16.1102C71.6743 15.6908 71.6035 15.2714 71.6035 14.852C71.6035 14.4326 71.6602 14.0461 71.7735 13.6924C71.8962 13.3388 72.0661 13.0304 72.2832 12.7673C72.5097 12.5041 72.774 12.2985 73.0761 12.1505C73.3876 12.0025 73.7274 11.9285 74.0956 11.9285C74.3127 11.9285 74.5251 11.9696 74.7327 12.0518C74.9499 12.1258 75.1434 12.2368 75.3133 12.3849C75.4832 12.5247 75.6201 12.6974 75.7239 12.903C75.8277 13.1086 75.8796 13.3429 75.8796 13.6061C75.8796 13.9433 75.8136 14.2599 75.6814 14.5559C75.5493 14.852 75.3652 15.1275 75.1292 15.3824C74.9027 15.6373 74.6289 15.8717 74.308 16.0855C73.987 16.2993 73.6425 16.4844 73.2743 16.6406ZM72.8496 15.8388C73.1422 15.7319 73.4065 15.5962 73.6425 15.4317C73.8879 15.2673 74.0956 15.0863 74.2655 14.889C74.4354 14.6916 74.5676 14.486 74.6619 14.2722C74.7563 14.0502 74.8035 13.8281 74.8035 13.6061C74.8035 13.3594 74.7327 13.1743 74.5912 13.051C74.4496 12.9194 74.2844 12.8536 74.0956 12.8536C73.8407 12.8536 73.6236 12.9153 73.4442 13.0387C73.2649 13.162 73.1186 13.3224 73.0053 13.5197C72.892 13.7171 72.8071 13.9391 72.7504 14.1859C72.7032 14.4243 72.6796 14.6628 72.6796 14.9013C72.6796 15.0493 72.6938 15.2056 72.7221 15.3701C72.7599 15.5345 72.8024 15.6908 72.8496 15.8388Z" fill="#24262B"/>
<g opacity="0.4">
<path d="M91.7575 18.7022L93.4621 19.5185C94.1115 19.8295 94.7511 19.5704 94.8983 18.9506L95.2072 17.5935L92.1633 16.1358L91.2996 17.2272C90.9252 17.6965 91.1487 18.4106 91.7575 18.7022Z" stroke="#24262B" stroke-linecap="round" stroke-linejoin="round"/>
<path d="M95.2107 17.5868L96.8798 17.1055C97.8145 16.838 98.036 16.445 97.8293 15.5395L97.0199 11.9337C96.8494 11.1784 96.1391 10.8383 95.4438 11.1789L92.127 12.8086C91.2919 13.2153 91.0878 13.6415 91.5022 14.5301L92.1735 16.1322" stroke="#24262B" stroke-linecap="round" stroke-linejoin="round"/>
<path d="M96.2963 11.4125L95.4767 13.1239" stroke="#24262B" stroke-linecap="round" stroke-linejoin="round"/>
</g>
<path d="M97.6357 7.12274L97.3608 6.34242C97.1951 5.87224 97.4413 5.35819 97.9115 5.19252L98.6918 4.91757C99.162 4.7519 99.676 4.9981 99.8417 5.46828L100.117 6.24859C100.282 6.71877 100.036 7.23283 99.5659 7.39849L98.7856 7.67345C98.3155 7.83911 97.8014 7.59291 97.6357 7.12274Z" stroke="#24262B" stroke-linecap="round" stroke-linejoin="round"/>
<path d="M101.753 12.9366L102.497 13.2929C102.944 13.5067 103.134 14.047 102.92 14.4934L102.564 15.2375C102.35 15.6839 101.81 15.8743 101.364 15.6605L100.62 15.3041C100.173 15.0903 99.9828 14.5501 100.197 14.1036L100.553 13.3596C100.767 12.9131 101.307 12.7228 101.753 12.9366Z" stroke="#24262B" stroke-linecap="round" stroke-linejoin="round"/>
<path d="M91.6746 8.10971L90.9305 7.75336C90.484 7.53956 89.9438 7.7299 89.73 8.17635L89.3737 8.9204C89.1599 9.36685 89.3502 9.9071 89.7966 10.1209L90.5407 10.4773C90.9872 10.6911 91.5274 10.5007 91.7412 10.0542L92.0975 9.31017C92.3113 8.86372 92.121 8.32351 91.6746 8.10971Z" stroke="#24262B" stroke-linecap="round" stroke-linejoin="round"/>
<path d="M101.044 12.8379L99.1758 7.53589" stroke="#24262B" stroke-linecap="round" stroke-linejoin="round"/>
<path d="M92.1962 8.6007L97.4982 6.73255" stroke="#24262B" stroke-linecap="round" stroke-linejoin="round"/>
</svg>
